<svg width="32" height="32" viewBox="0 0 20 22" fill="none" xmlns="http://www.w3.org/2000/svg">
<path d="M18.6591 7.79552C18.1034 3.4351 14.3919 0.166687 9.99569 0.166687C5.59952 0.166687 1.88153 3.43944 1.33011 7.80527L0.104858 17.5H4.69169C5.19327 19.9722 7.37944 21.8334 10 21.8334C12.6206 21.8334 14.8068 19.9722 15.3084 17.5H19.8974L18.6591 7.79552ZM10 19.6667C8.58519 19.6667 7.38161 18.7621 6.93527 17.5H13.0648C12.6184 18.7621 11.4149 19.6667 10 19.6667ZM2.56186 15.3334L3.47944 8.07719C3.89436 4.79469 6.68611 2.33335 9.99569 2.33335C13.3053 2.33335 16.0916 4.79035 16.5098 8.0696L17.436 15.3334H2.56186Z" fill="white"/>
</svg>
