<svg width="32" height="32" viewBox="0 0 19 21" fill="none" xmlns="http://www.w3.org/2000/svg">
<path d="M2.444 18.4167H16.2002C15.8351 16.4667 15.0919 14.9392 14.0931 13.8775C12.9166 12.6208 11.3132 11.9167 9.32208 11.9167C7.33092 11.9167 5.72867 12.6208 4.55108 13.8775C3.55225 14.9392 2.80908 16.4667 2.444 18.4167ZM2.9705 12.3933C4.58467 10.6708 6.77408 9.75 9.32208 9.75C11.8701 9.75 14.0595 10.6708 15.6737 12.3933C17.2737 14.105 18.2368 16.51 18.525 19.3917L18.6442 20.5833H0L0.119167 19.3917C0.407333 16.51 1.37042 14.105 2.9705 12.3933ZM9.32208 2.16667C8.125 2.16667 7.15542 3.14167 7.15542 4.33333C7.15542 5.525 8.125 6.5 9.32208 6.5C10.5192 6.5 11.4887 5.525 11.4887 4.33333C11.4887 3.14167 10.5192 2.16667 9.32208 2.16667ZM4.98875 4.33333C4.98875 1.93917 6.929 0 9.32208 0C11.7152 0 13.6554 1.93917 13.6554 4.33333C13.6554 6.7275 11.7152 8.66667 9.32208 8.66667C6.929 8.66667 4.98875 6.7275 4.98875 4.33333Z" fill="white"/>
</svg>
