<svg width="13" height="13" viewBox="0 0 13 13" fill="none" xmlns="http://www.w3.org/2000/svg">
<path d="M5.40625 1.34375C3.1625 1.34375 1.34375 3.1625 1.34375 5.40625C1.34375 7.65 3.1625 9.46875 5.40625 9.46875C6.52812 9.46875 7.54312 9.015 8.27875 8.27875C9.015 7.54312 9.46875 6.52812 9.46875 5.40625C9.46875 3.1625 7.65 1.34375 5.40625 1.34375ZM0.09375 5.40625C0.09375 2.4725 2.4725 0.09375 5.40625 0.09375C8.34 0.09375 10.7188 2.4725 10.7188 5.40625C10.7188 6.6475 10.2925 7.79063 9.57875 8.695L12.5669 11.6831L11.6831 12.5669L8.695 9.57875C7.79063 10.2925 6.6475 10.7188 5.40625 10.7188C2.4725 10.7188 0.09375 8.34 0.09375 5.40625Z" fill="#71767B"/>
</svg>
